K   R2 R3
D @10
A @99
E @0o4
H q2

CFG    [r1]16

;=================16
D   [g12r24g12&g48r12g12&g48r12g12r24g12&g48r12g12&g48r12g12&g48r48g12&g48r12g12&g48r12g12&g48r48g12&g48r12a12&a48r12g12&g48r48g12&g48r12g12&g48r12e12&e48r48e12&e48r12e12&e48r12g12r24g12r12&r48g12r12&r48:a+12r24a+12r12&r48g+12r12&r48]2 g12r24g12r12&r48g12r12&r48
D   g12&g48r48g12&g48r12g12&g48r12g12&g48r48g12&g48r12g12&g48r12g12&g48r48g12&g48r12g12&g48r12g12&g48r48g12&g48r12a12&a48r12g12&g48r48g12&g48r12g12&g48r12e12&e48r48e12&e48r12e12&e48r12g12r24g12r12&r48g12r12&r48a+12r24a+12r12&r48g+12r12&r48  g12&g48r48g12&g48r12g12&g48r12  g12&g48r48g12&g48r12g12&g48r12g12&g48r48g12&g48r12g12&g48r12g12&g48r48g12&g48r12a12&a48r12g12&g48r48g12&g48r12g12&g48r12 a+12&a+48r48a+12&a+48r12a+12&a+48r12a12r24a12r12&r48a12r12&r48g12r24g12r12&r48g12r12&r48

A   [[>c12r24c12&c48r12c12&c48r12c+12r24c+12&c+48r12c+12&c+48r12d12&d48r48d12&d48r12d12&d48r12c+12&c+48r48c+12&c+48r12c+12&c+48r12<b12&b48r48b12&b48r12b12&b48r12a12&a48r48a12&a48r12a12&a48r12>c12r24c12r12&r48c12r12&r48:<a+12r24a+12r12&r48g+12r12&r48]2:c+12&c+48r48c+12&c+48r12c+12&c+48r12]2 c12r24c12r12&r48c12r12&r48

H	c12r6c12r6c+12r6c+12r6d12r6d12r6c+12r6c+12r6e12r6e12r6<a12r6a12r6>d12r6d12r6c+12r6c+12r6c12r6c12r6c+12r6c+12r6d12r6d12r6c+12r6c+12r6e12r6e12r6<a12r6a12r6>d12r6d12r6c+12r6c+12r6c12r24d12r24e12r24g12r24c+12r24d12r24e12r24g12r24d12r24e12r24f12r24d12r24c+12r24<g+12r24>c+12r24e12r24e12r24f12r24g12r24g+12r24a12r24g12r24f12r24e12r24d12r24e12r24f12r24d12r24c+12r24<g+12r24>c+12r24e12r24c12r24d12r24e12r24g12r24c+12r24d12r24e12r24g12r24d12r24e12r24f12r24d12r24c+12r24<g+12r24>c+12r24e12r24e12r24f12r24g12r24g+12r24a12r24g12r24f12r24e12r24d12r24e12r24f12r24f+12r24g12r24f12r24e12r24d12r24



E	d+16r16e16r16f16r16f+16r16g12c24r12c12r12c12d24e12f24e12f24e12c24<a12>d48e12&e48r24e12d24r12g24g12f24d+16r16e16r16f16r16f+16r16g12c24r12c12&c48r16c12d24e12f24e12f24e12c12r24a48a+12&a+48a+24g+12g24f12r24g12r24d+16r16e16r16f16r16f+16r16g12c24r12c12&c48r16c12d24e12f24e12f24e12c24<a12>d48e12&e48r24e12d24r12g24g12f24d+16r16e16r16f16r16f+16r16g12c24r12c12&c48r16<a+12g+24a12r24>g12r24f12r24e12r24e6r24d24r12g24g12f24
E   d+16r16e16r16f16r16f+16r16g12c24r12c12&c48r16c12d24e12f24e12f24e12c24<a12>d48e12&e48r24e12d24r12g24g12f24d+16r16e16r16f16r16f+16r16g12c24r12c12&c48r16c12d24e12f24e12f24e12c12r24a48a+12&a+48a+24g+12g24f12r24g12r24d+16r16e16r16f16r16f+16r16g12c24r12c12&c48r16c12d24e12f24e12f24e12c24<a12>d48e8&e48e12d8g24g12f24d+16r16e16r16f16r16f+16r16g12>c24r12<e8f24f+12g24d+12r24e12r24c12r24<a12r24>e6r24d6&d24r16&r48
 


B   [r1]8 [[r12 c24 e12 g24]6 r12 <g24 >c12 d24 g24 d24 <g24 >c12 <g24> [r12 c24 e12 g24]4:[r4]3 c24 <g+24 e24 c12 <g24>>]2 [r12 c24 e12 g24]4