BF    [r1]16
K R4
G   [r1 [r8 !jul 8V0 o4]4]8

D   [r8<g12r24g12r24g12r24>e12r24e12r24e6r1&r6&r24c12r24c12r24c12r24c+12r24c+12r24c+6&c+24c8r24c12r24c12r24c12r24<b12r24b12r24b6&b24r6g12r24g12r24g12r24>g12r24g12r24g6r1:r6&r24<b12r24b12r24b12r24>c+12r24c+12r24c+6&c+24c8r24c12r24c12r24c12r24<g12r24g12r24g6&g24r24]2 r2&r12a+12r24a+12r8a+12r12>d12r24d12r8d12r12c+6r24c+8r6 

A   r8d12r24d12r24d12r24c+12r24c+12r24c+6r24c8r24c8c12r24c12r24b12r24>f12r24d12r24c12<b6e12r24e12r24e12r24f12r24f12r24f6&f24e8r24e12r24e12r24e12r24d+12r24d+12r24d+6&d+24r6d12r24d12r24d12r24c+12r24c+12r24c+6r24c8r24c8<g12r6>g6r12f6r24e6d12r24d12r24d12r24g12r24g12r24g6&g24<f8r24f12r24f12r24f12r24b12r24b12r24b6&b24r24
A   r8>d12r24d12r24d12r24c+12r24c+12r24c+6r24c8r24c8c12r24c12r24b12r24>f12r24d12r24c12<b6e12r24e12r24e12r24f12r24f12r24f6&f24e8r24e12r24e12r24e12r24d+12r24d+12r24d+6&d+24r6d12r24d12r24d12r24c+12r24c+12r24c+6r24c8r24c8<g12r6>g6r12f6r24e3&e48r6&r48f12r24f12r8f12r12f12r24f12r8f12r12g6r24g8r6

C   r1&r1&r8<g24a24>c24d12c24d12d+24e12a24g24e24d+24c24<a24g24d+24d24c24r8>g24r12g24r12g24r12g24r12f24r12e24r12f24r24g24 r1&r1&r8g12f24d+12e24c12<a24g24a24>c24d24c24d24e12>c24r12c8d24d+12e24c12<g24a12g24d+12e24d24c24<a24g12f24e12f24
C   r1&r1&r8g24a24>c24d12c24d12d+24e12a24g24e24d+24c24<a24g24d+24d24c24r8>g24r12g24r12g24r12g24r12f24r12e24r12f24r24g24r1&r1&r8<b24>c24c+24d8r12<g24r8a+24b24>c24c+8r1&r8

H   [e12r24f12r24g12r24b12r24a12r24g12r24f12r24e12:d8r24e12r24f12r24f+12r24g12r24d12r24g12r24f12e8r24f12r24f+12r24g12r24a12r24g12r24f12r24e12r24d12r24>c12r24<b12r24a12r24g12r24f12r24e12r24d12r24]4 d8r24e12r24f12r24f+12r24g12r24d12r24g12r24f12r24e12r24e12r8e12r12d+12r24d+12r8d+12r12d12r24e12r24f12r24d12r24c+8r12c+12r6&r24

E   r8g12r24g12r24g12r24g12r24g12r24g12r24g12g8r24f8e12r24f12r24g12r24>c12r24<b12r24a12g1&g24r1
E   r8g12r24g12r24g12r24f12r24e12r24f12g12r24e8r24c8<a12r24>d12r24c6r12<b6r24>g1&g24r1
E   r8g12r24g12r24g12r24g12r24g12r24g12r24g12g8r24f8e12r24f12r24g12r24>c12r24<b12r24a12g1&g24r1
E   r8g12r24g12r24g12r24f12r24e12r24f12g24r12e6c8<a12r24>d12r24c6r12<b8r16>g1g8r16f12r24e12r24d12r24c12r24<b12r24a12r24b12g24